<svg width="215" height="96" viewBox="0 0 215 96" fill="none" xmlns="http://www.w3.org/2000/svg">
<path d="M82.2258 63.5362C91.0388 54.934 91.0388 40.9869 82.2258 32.3847L80.2131 30.4201L31.0299 78.4271L49 95.9674L82.2258 63.5362Z" fill="url(#paint0_linear_27_7649)"/>
<path d="M31.0295 78.427L80.3481 30.2878L49.033 96.0001L31.0295 78.427Z" fill="url(#paint1_linear_27_7649)"/>
<path d="M15.9574 32.2458C7.14436 40.848 7.14436 54.795 15.9574 63.3973L17.9701 65.3619L66.9634 17.5403L48.9933 -7.41235e-05L15.9574 32.2458Z" fill="url(#paint2_linear_27_7649)"/>
<path d="M66.9753 17.594L18.0036 65.3946L48.9718 0.0209292L66.9753 17.594Z" fill="url(#paint3_linear_27_7649)"/>
<path d="M82.2332 32.4057C91.0462 41.008 91.0462 54.955 82.2332 63.5572L80.2205 65.5218L31.0636 17.5405L49.0337 0.000178865L82.2332 32.4057Z" fill="url(#paint4_linear_27_7649)"/>
<path d="M31.0319 17.5731L80.1508 65.5174L49.0355 4.2909e-05L31.0319 17.5731Z" fill="url(#paint5_linear_27_7649)"/>
<path d="M15.9574 63.7152C7.14436 55.1129 7.14436 41.1659 15.9574 32.5637L17.9701 30.5991L66.9634 78.4207L48.9933 95.961L15.9574 63.7152Z" fill="url(#paint6_linear_27_7649)"/>
<path d="M66.9753 78.367L18.0036 30.5664L48.9718 95.94L66.9753 78.367Z" fill="url(#paint7_linear_27_7649)"/>
<path d="M119.486 63.445H112.5L112.544 58.4114H119.486C121.22 58.4114 122.682 58.0314 123.872 57.2713C125.062 56.4969 125.958 55.3712 126.561 53.8941C127.178 52.417 127.486 50.6315 127.486 48.5378V47.0105C127.486 45.4043 127.31 43.9918 126.957 42.7728C126.619 41.5538 126.113 40.5285 125.437 39.6967C124.761 38.8649 123.931 38.2411 122.946 37.8252C121.962 37.395 120.831 37.1799 119.552 37.1799H112.368V32.1248H119.552C121.698 32.1248 123.659 32.4833 125.437 33.2003C127.229 33.903 128.779 34.914 130.087 36.2334C131.394 37.5527 132.401 39.1302 133.106 40.9658C133.826 42.7871 134.186 44.8163 134.186 47.0535V48.5378C134.186 50.7606 133.826 52.7898 133.106 54.6254C132.401 56.4611 131.394 58.0386 130.087 59.3579C128.794 60.6629 127.244 61.6739 125.437 62.391C123.644 63.0937 121.661 63.445 119.486 63.445ZM116.247 32.1248V63.445H109.635V32.1248H116.247Z" fill="white"/>
<path d="M137.58 52.0441V51.5924C137.58 49.8858 137.83 48.3155 138.329 46.8814C138.829 45.433 139.556 44.1782 140.511 43.117C141.466 42.0557 142.641 41.2312 144.037 40.6432C145.433 40.0409 147.034 39.7397 148.841 39.7397C150.648 39.7397 152.257 40.0409 153.668 40.6432C155.078 41.2312 156.261 42.0557 157.216 43.117C158.185 44.1782 158.92 45.433 159.42 46.8814C159.919 48.3155 160.169 49.8858 160.169 51.5924V52.0441C160.169 53.7363 159.919 55.3066 159.42 56.7551C158.92 58.1891 158.185 59.444 157.216 60.5195C156.261 61.5807 155.085 62.4053 153.69 62.9933C152.294 63.5813 150.692 63.8753 148.885 63.8753C147.078 63.8753 145.469 63.5813 144.059 62.9933C142.663 62.4053 141.481 61.5807 140.511 60.5195C139.556 59.444 138.829 58.1891 138.329 56.7551C137.83 55.3066 137.58 53.7363 137.58 52.0441ZM143.927 51.5924V52.0441C143.927 53.0193 144.015 53.9299 144.191 54.776C144.368 55.6221 144.647 56.3679 145.029 57.0132C145.425 57.6442 145.94 58.1389 146.571 58.4975C147.203 58.856 147.974 59.0352 148.885 59.0352C149.767 59.0352 150.524 58.856 151.155 58.4975C151.787 58.1389 152.294 57.6442 152.676 57.0132C153.058 56.3679 153.337 55.6221 153.513 54.776C153.704 53.9299 153.8 53.0193 153.8 52.0441V51.5924C153.8 50.6459 153.704 49.7568 153.513 48.925C153.337 48.0789 153.051 47.3332 152.654 46.6878C152.272 46.0281 151.765 45.5119 151.133 45.139C150.501 44.7662 149.738 44.5797 148.841 44.5797C147.945 44.5797 147.181 44.7662 146.549 45.139C145.932 45.5119 145.425 46.0281 145.029 46.6878C144.647 47.3332 144.368 48.0789 144.191 48.925C144.015 49.7568 143.927 50.6459 143.927 51.5924Z" fill="white"/>
<path d="M174.317 63.445H167.331L167.375 58.4114H174.317C176.051 58.4114 177.513 58.0314 178.703 57.2713C179.893 56.4969 180.789 55.3712 181.392 53.8941C182.009 52.417 182.317 50.6315 182.317 48.5378V47.0105C182.317 45.4043 182.141 43.9918 181.788 42.7728C181.45 41.5538 180.944 40.5285 180.268 39.6967C179.592 38.8649 178.762 38.2411 177.777 37.8252C176.793 37.395 175.662 37.1799 174.384 37.1799H167.199V32.1248H174.384C176.529 32.1248 178.49 32.4833 180.268 33.2003C182.06 33.903 183.61 34.914 184.918 36.2334C186.225 37.5527 187.232 39.1302 187.937 40.9658C188.657 42.7871 189.017 44.8163 189.017 47.0535V48.5378C189.017 50.7606 188.657 52.7898 187.937 54.6254C187.232 56.4611 186.225 58.0386 184.918 59.3579C183.625 60.6629 182.075 61.6739 180.268 62.391C178.475 63.0937 176.492 63.445 174.317 63.445ZM171.078 32.1248V63.445H164.466V32.1248H171.078Z" fill="white"/>
<path d="M192.411 52.0441V51.5924C192.411 49.8858 192.661 48.3155 193.16 46.8814C193.66 45.433 194.387 44.1782 195.342 43.117C196.297 42.0557 197.472 41.2312 198.868 40.6432C200.264 40.0409 201.865 39.7397 203.672 39.7397C205.479 39.7397 207.088 40.0409 208.499 40.6432C209.909 41.2312 211.092 42.0557 212.047 43.117C213.017 44.1782 213.751 45.433 214.251 46.8814C214.75 48.3155 215 49.8858 215 51.5924V52.0441C215 53.7363 214.75 55.3066 214.251 56.7551C213.751 58.1891 213.017 59.444 212.047 60.5195C211.092 61.5807 209.917 62.4053 208.521 62.9933C207.125 63.5813 205.524 63.8753 203.716 63.8753C201.909 63.8753 200.301 63.5813 198.89 62.9933C197.494 62.4053 196.312 61.5807 195.342 60.5195C194.387 59.444 193.66 58.1891 193.16 56.7551C192.661 55.3066 192.411 53.7363 192.411 52.0441ZM198.758 51.5924V52.0441C198.758 53.0193 198.846 53.9299 199.022 54.776C199.199 55.6221 199.478 56.3679 199.86 57.0132C200.256 57.6442 200.771 58.1389 201.402 58.4975C202.034 58.856 202.806 59.0352 203.716 59.0352C204.598 59.0352 205.355 58.856 205.986 58.4975C206.618 58.1389 207.125 57.6442 207.507 57.0132C207.889 56.3679 208.168 55.6221 208.344 54.776C208.535 53.9299 208.631 53.0193 208.631 52.0441V51.5924C208.631 50.6459 208.535 49.7568 208.344 48.925C208.168 48.0789 207.882 47.3332 207.485 46.6878C207.103 46.0281 206.596 45.5119 205.964 45.139C205.333 44.7662 204.569 44.5797 203.672 44.5797C202.776 44.5797 202.012 44.7662 201.38 45.139C200.763 45.5119 200.256 46.0281 199.86 46.6878C199.478 47.3332 199.199 48.0789 199.022 48.925C198.846 49.7568 198.758 50.6459 198.758 51.5924Z" fill="white"/>
<defs>
<linearGradient id="paint0_linear_27_7649" x1="85.4892" y1="35.6157" x2="50.1687" y2="96.7608" gradientUnits="userSpaceOnUse">
<stop stop-color="#00ABF5"/>
<stop offset="0.484375" stop-color="#00CDFD"/>
<stop offset="1" stop-color="#0BE0FD"/>
</linearGradient>
<linearGradient id="paint1_linear_27_7649" x1="80.0159" y1="30.0093" x2="50.1993" y2="95.2691" gradientUnits="userSpaceOnUse">
<stop stop-color="#2BC5F3"/>
<stop offset="0.416667" stop-color="#14B8ED"/>
<stop offset="1" stop-color="#019ADE"/>
</linearGradient>
<linearGradient id="paint2_linear_27_7649" x1="12.6939" y1="60.1664" x2="47.943" y2="-0.725989" gradientUnits="userSpaceOnUse">
<stop stop-color="#BBD72A"/>
<stop offset="0.65625" stop-color="#33AE48"/>
<stop offset="1" stop-color="#026C36"/>
</linearGradient>
<linearGradient id="paint3_linear_27_7649" x1="33.8507" y1="24.7807" x2="41.8508" y2="48.3419" gradientUnits="userSpaceOnUse">
<stop stop-color="#2CA345"/>
<stop offset="1" stop-color="#81C83A"/>
</linearGradient>
<linearGradient id="paint4_linear_27_7649" x1="85.4966" y1="60.3262" x2="50.186" y2="-0.783857" gradientUnits="userSpaceOnUse">
<stop stop-color="#00ABF5"/>
<stop offset="0.484375" stop-color="#00CDFD"/>
<stop offset="1" stop-color="#0BE0FD"/>
</linearGradient>
<linearGradient id="paint5_linear_27_7649" x1="79.8187" y1="65.796" x2="50.0251" y2="0.80636" gradientUnits="userSpaceOnUse">
<stop stop-color="#019ADE"/>
<stop offset="1" stop-color="#2BC5F3"/>
</linearGradient>
<linearGradient id="paint6_linear_27_7649" x1="12.6939" y1="35.7945" x2="47.943" y2="96.6869" gradientUnits="userSpaceOnUse">
<stop stop-color="#026C36"/>
<stop offset="0.484375" stop-color="#33AE48"/>
<stop offset="1" stop-color="#BBD72A"/>
</linearGradient>
<linearGradient id="paint7_linear_27_7649" x1="18.3356" y1="30.2877" x2="48.1118" y2="95.078" gradientUnits="userSpaceOnUse">
<stop stop-color="#0A763A"/>
<stop offset="1" stop-color="#3DB749"/>
</linearGradient>
</defs>
</svg>
